<svg xmlns="http://www.w3.org/2000/svg" width="450" height="236" viewBox="0 0 450 236">
<style>
  text { font-family: 'JetBrains Mono','Fira Code','SF Mono',Consolas,'Liberation Mono',monospace; }
  .dim { font-size: 11px; letter-spacing: 1.5px; fill: #5c6f86; }
  .in { opacity: 0; animation: in .6s ease-out forwards; }
  @keyframes in { to { opacity: 1; } }
  .grow { transform-box: fill-box; transform-origin: left; transform: scaleX(0); animation: grow 1s ease-out forwards; }
  @keyframes grow { to { transform: scaleX(1); } }
  .draw { stroke-dasharray: 3000; stroke-dashoffset: 3000; animation: draw 2.2s ease-out forwards; }
  @keyframes draw { to { stroke-dashoffset: 0; } }
</style>
<rect x="1" y="1" width="448" height="234" rx="8" fill="#05070d" stroke="#00f7ff" stroke-opacity=".28"/>
<g stroke="#00f7ff" stroke-width="2.5" fill="none">
  <path d="M1 22V1h21"/><path d="M428 1h21v21"/><path d="M449 214v21h-21"/><path d="M22 235H1v-21"/>
</g>
<text x="22" y="30" class="dim">▸ LANGUAGE.MATRIX</text>
<path d="M22 42H428" stroke="#00f7ff" stroke-opacity=".18" stroke-dasharray="2 4"/>
<g class="in" style="animation-delay:0.00s"><text x="22" y="73" font-size="12" fill="#e6edf3">TypeScript</text><rect x="130" y="64" width="250" height="10" rx="2" fill="#0d1624"/><rect class="grow" style="animation-delay:0.20s" x="130" y="64" width="87.9" height="10" rx="2" fill="#3178c6"/><text x="428" y="73" font-size="11" fill="#5c6f86" text-anchor="end">35.1%</text></g>
<g class="in" style="animation-delay:0.12s"><text x="22" y="100" font-size="12" fill="#e6edf3">JavaScript</text><rect x="130" y="91" width="250" height="10" rx="2" fill="#0d1624"/><rect class="grow" style="animation-delay:0.32s" x="130" y="91" width="55.7" height="10" rx="2" fill="#f1e05a"/><text x="428" y="100" font-size="11" fill="#5c6f86" text-anchor="end">22.3%</text></g>
<g class="in" style="animation-delay:0.24s"><text x="22" y="127" font-size="12" fill="#e6edf3">Dart</text><rect x="130" y="118" width="250" height="10" rx="2" fill="#0d1624"/><rect class="grow" style="animation-delay:0.44s" x="130" y="118" width="48.9" height="10" rx="2" fill="#00B4AB"/><text x="428" y="127" font-size="11" fill="#5c6f86" text-anchor="end">19.6%</text></g>
<g class="in" style="animation-delay:0.36s"><text x="22" y="154" font-size="12" fill="#e6edf3">Python</text><rect x="130" y="145" width="250" height="10" rx="2" fill="#0d1624"/><rect class="grow" style="animation-delay:0.56s" x="130" y="145" width="32.6" height="10" rx="2" fill="#3572A5"/><text x="428" y="154" font-size="11" fill="#5c6f86" text-anchor="end">13.0%</text></g>
<g class="in" style="animation-delay:0.48s"><text x="22" y="181" font-size="12" fill="#e6edf3">C++</text><rect x="130" y="172" width="250" height="10" rx="2" fill="#0d1624"/><rect class="grow" style="animation-delay:0.68s" x="130" y="172" width="18.1" height="10" rx="2" fill="#f34b7d"/><text x="428" y="181" font-size="11" fill="#5c6f86" text-anchor="end">7.2%</text></g>
<g class="in" style="animation-delay:0.60s"><text x="22" y="208" font-size="12" fill="#e6edf3">PLpgSQL</text><rect x="130" y="199" width="250" height="10" rx="2" fill="#0d1624"/><rect class="grow" style="animation-delay:0.80s" x="130" y="199" width="6.8" height="10" rx="2" fill="#336790"/><text x="428" y="208" font-size="11" fill="#5c6f86" text-anchor="end">2.7%</text></g>
</svg>
